# xmcd
#
# Track frame offsets: 
#        150
#        16021
#        29873
#        44203
#        58628
#        73168
#        90146
#        104247
#        118550
#        130373
#        146271
#        158261
#        171964
#        186580
#        206163
#        220444
#        234742
#        251322
#
# Disc length: 3578 seconds
#
# Revision: 0
# Processed by: cddbd v1.5.2PL0 Copyright (c) Steve Scherf et al.
# Submitted via: ExactAudioCopyFreeDBPlugin 1.0
#
DISCID=0f0df812
DTITLE=Michel Teló - Ao Vivo
DYEAR=2010
DGENRE=Sertanejo
TTITLE0=Ei, psiu beijo me liga
TTITLE1=Me odeie
TTITLE2=Fugidinha
TTITLE3=Pode ir
TTITLE4=Curtindo solidão
TTITLE5=Larga de bobeira
TTITLE6=Amanhã sei lá
TTITLE7=É amor pra valer
TTITLE8=Fala coração
TTITLE9=Saudade de minha terra (60 dias apaixonado)
TTITLE10=Dominou geral
TTITLE11=Se não tem mar, vamos pro bar
TTITLE12=Olhos negros
TTITLE13=Barquinho (eu quero você)
TTITLE14=Orelhão
TTITLE15=Amor não épaixão
TTITLE16=A voz
TTITLE17=Balada sertaneja
EXTD=
EXTT0=
EXTT1=
EXTT2=
EXTT3=
EXTT4=
EXTT5=
EXTT6=
EXTT7=
EXTT8=
EXTT9=
EXTT10=
EXTT11=
EXTT12=
EXTT13=
EXTT14=
EXTT15=
EXTT16=
EXTT17=
PLAYORDER=
